PathFileType	3	(X/Y/Z)	E:\ViconData\BIOM9541 2025\Week 7\Wed1100\Stat Cal.trc
DataRate	CameraRate	NumFrames	NumMarkers	Units	OrigDataRate	OrigDataStartFrame	OrigNumFrames
200.0	200.0	16	19	mm	200.0	43	106	
Frame#	Time	C7			CLAV			RBAK			LASI			RASI			LPSI			RPSI			LTHI			LKNE			LTIB			LANK			LHEE			LTOE			RTHI			RKNE			RTIB			RANK			RHEE			RTOE			
		X1	Y1	Z1	X2	Y2	Z2	X3	Y3	Z3	X4	Y4	Z4	X5	Y5	Z5	X6	Y6	Z6	X7	Y7	Z7	X8	Y8	Z8	X9	Y9	Z9	X10	Y10	Z10	X11	Y11	Z11	X12	Y12	Z12	X13	Y13	Z13	X14	Y14	Z14	X15	Y15	Z15	X16	Y16	Z16	X17	Y17	Z17	X18	Y18	Z18	X19	Y19	Z19	
43	0.21	230.79097	1319.415	-1006.2521	235.86403	1262.7695	-845.99628	75.221321	1240.9948	-1001.6747	349.03726	884.25391	-810.2132	96.760429	895.00555	-804.5567	263.05423	952.42389	-988.19489	189.49878	952.26416	-985.24292	393.07947	552.15717	-874.77747	379.64166	417.03314	-908.6983	395.65692	204.9478	-935.22321	377.17526	62.70385	-960.30341	324.16946	48.432648	-990.82031	377.27637	37.336609	-809.98962	37.237144	726.74054	-865.85291	50.598915	417.60947	-917.77118	30.609554	319.8931	-931.52838	50.721478	72.097878	-952.04956	101.75138	49.881073	-994.71735	61.17107	39.336983	-809.58813
44	0.215	230.78442	1319.3983	-1006.2171	235.86246	1262.7727	-845.97577	75.22435	1240.9601	-1001.6183	349.02368	884.25531	-810.20325	96.743965	895.03314	-804.52545	263.06369	952.37354	-988.15637	189.49654	952.20081	-985.20856	393.07651	552.12	-874.89001	379.66159	416.99075	-908.88202	395.67017	204.86485	-935.37445	377.08926	62.551437	-960.18726	324.18344	48.355526	-990.80933	377.28613	37.308136	-810.00757	37.218124	726.72852	-865.86847	50.605885	417.60995	-917.81152	30.598959	319.87827	-931.5459	50.793098	72.053329	-952.11902	101.76031	49.836418	-994.74512	61.188522	39.32621	-809.63867
45	0.22	230.75629	1319.3961	-1006.1742	235.87387	1262.7822	-845.96417	75.180138	1240.9856	-1001.5805	349.00687	884.27063	-810.14862	96.737404	895.0473	-804.48041	263.03821	952.37817	-988.12109	189.49045	952.20129	-985.17645	393.09824	552.06281	-874.9754	379.65164	416.96768	-908.89935	396.00848	204.33447	-937.56903	377.05557	62.53495	-960.17706	324.16452	48.379639	-990.86188	377.27213	37.278618	-810.02441	37.183697	726.72961	-865.84888	50.56258	417.61853	-917.77448	30.286978	320.13901	-931.63501	50.762249	72.033974	-952.1145	101.7449	49.8358	-994.73932	61.164074	39.320919	-809.617
46	0.225	230.73758	1319.4174	-1006.1438	235.8727	1262.7428	-845.94067	75.171875	1241.0054	-1001.5525	349.01059	884.25586	-810.12421	96.722351	895.02521	-804.46265	263.02353	952.41333	-988.08276	189.45058	952.26398	-985.12469	394.29675	551.2912	-879.30811	379.64691	416.9859	-908.80914	395.64426	204.85651	-935.35406	377.05197	62.583351	-960.1712	324.12085	48.405411	-990.80109	377.2504	37.285267	-810.01892	37.181175	726.73425	-865.80273	50.545631	417.63745	-917.77777	30.548439	319.90741	-931.49731	50.661156	72.076897	-952.03278	101.72398	49.863945	-994.74365	61.118294	39.332859	-809.55267
47	0.23	230.72971	1319.4331	-1006.1188	235.88338	1262.7262	-845.91425	75.152794	1241.0558	-1001.5355	348.99396	884.19592	-810.06909	96.713257	894.97766	-804.43512	262.99765	952.45123	-988.05847	189.44067	952.33112	-985.1059	394.2879	551.30176	-879.25549	379.62848	417.02298	-908.75574	395.63962	204.91199	-935.30139	377.06311	62.656425	-960.19525	324.11746	48.51857	-990.85352	377.23706	37.325787	-810.03192	37.173248	726.74146	-865.77252	50.53587	417.66052	-917.73596	30.555313	319.91769	-931.49249	50.652866	72.104065	-952.01947	101.7003	49.924751	-994.7334	61.110832	39.349022	-809.57043
48	0.235	230.67296	1319.5087	-1006.2164	235.86844	1262.7471	-845.86993	75.150269	1241.0275	-1001.4763	348.97485	884.21594	-810.02759	96.685463	895.00946	-804.37213	263.00735	952.43921	-988.02979	189.43657	952.3219	-985.07025	394.26721	551.29547	-879.28784	379.61365	416.99738	-908.81891	395.64697	204.88715	-935.33917	377.06308	62.623791	-960.19855	324.14322	48.469917	-990.86273	377.24014	37.291576	-810.06042	37.169384	726.73895	-865.78802	50.567593	417.65176	-917.7981	30.551888	319.93823	-931.52393	50.746758	72.098419	-952.1236	101.71396	49.912285	-994.74615	61.137611	39.347836	-809.61328
49	0.24	230.69029	1319.4534	-1006.1656	235.87123	1262.7626	-845.82214	75.158646	1240.9978	-1001.423	348.97116	884.25989	-809.99133	96.673286	895.00891	-804.33441	263.02631	952.37524	-987.98969	189.48068	952.19269	-985.02051	394.31271	551.26996	-879.32227	379.63913	416.98657	-908.90125	396.02997	204.34866	-937.64532	377.03827	62.524521	-960.14832	324.46994	48.723175	-990.98889	377.2767	37.269169	-810.04358	37.166733	726.74127	-865.7948	50.575218	417.64929	-917.80713	30.270538	320.16953	-931.66071	50.755009	72.051865	-952.14233	101.72929	49.838051	-994.71985	61.142452	39.32745	-809.66571
50	0.245	230.69365	1319.442	-1006.125	235.97432	1262.8739	-845.3103	75.156319	1240.984	-1001.3608	348.98801	884.23846	-809.98535	96.690971	895.0094	-804.3103	263.01318	952.37177	-987.93866	189.46729	952.20941	-984.97137	393.07806	552.08557	-874.92255	379.62607	416.99991	-908.83826	396.00052	204.3665	-937.54401	377.00784	62.510403	-960.12372	324.16632	48.399727	-990.86542	377.259	37.271694	-810.01343	37.162701	726.71271	-865.71002	50.581448	417.63736	-917.79248	30.560387	319.89532	-931.51697	50.765926	72.060028	-952.12726	101.73193	49.839798	-994.73175	61.174301	39.320602	-809.65234
51	0.25	230.68839	1319.4563	-1006.1146	235.8775	1262.7163	-845.73871	75.184387	1240.998	-1001.3005	348.98956	884.17169	-809.93982	96.672691	894.9613	-804.26373	262.9978	952.42023	-987.92102	189.45584	952.26379	-984.94781	394.37827	551.22839	-879.39398	379.6264	417.0578	-908.59918	395.61734	204.97437	-935.1748	377.08231	62.617092	-960.20007	324.34662	48.351437	-990.6366	377.22012	37.356953	-809.98828	37.213581	726.68054	-865.6358	50.573631	417.60892	-917.73517	30.562593	319.88025	-931.44916	50.706608	72.104523	-952.06628	101.73695	49.888622	-994.71844	61.14698	39.319626	-809.56921
52	0.255	230.68248	1319.457	-1006.0797	235.95366	1262.7902	-845.24261	75.216446	1240.9879	-1001.2299	348.98688	884.1358	-809.90387	96.674316	894.91541	-804.24133	262.98715	952.47198	-987.87494	189.43427	952.34851	-984.91663	394.22186	551.36438	-878.98627	379.58853	417.12952	-908.33917	395.58609	205.04176	-934.85358	377.20706	62.811375	-960.36139	324.13327	48.589504	-990.85052	377.23535	37.395695	-809.9729	37.2384	726.68341	-865.56512	50.580776	417.59314	-917.72229	30.566654	319.89825	-931.41089	50.641403	72.144707	-951.93787	101.74539	49.982124	-994.71271	61.13892	39.329086	-809.52124
53	0.26	230.67723	1319.4847	-1006.0349	235.9671	1262.7771	-845.23962	75.202286	1241.0151	-1001.1927	348.95358	884.16779	-809.85913	96.666412	894.91644	-804.20227	262.98389	952.47418	-987.85083	189.42662	952.35138	-984.86896	394.21765	551.32355	-879.04364	379.59079	417.09421	-908.44342	395.58899	204.99474	-934.91443	377.18866	62.77737	-960.30554	324.13745	48.459461	-990.74359	377.23962	37.351635	-809.96912	37.219517	726.69489	-865.54346	50.587303	417.63364	-917.71985	30.551014	319.90677	-931.41608	50.64785	72.143852	-951.9408	101.74923	49.960854	-994.70245	61.144047	39.340984	-809.53088
54	0.265	230.68227	1319.5166	-1006.0004	235.96521	1262.8086	-845.22021	75.175308	1241.0388	-1001.1526	348.96664	884.19318	-809.84705	96.6605	894.96088	-804.1712	262.97614	952.47858	-987.81	189.44403	952.31262	-984.83325	394.3197	551.25775	-879.26685	379.61511	417.0195	-908.73712	395.63779	204.90041	-935.26355	377.15555	62.713264	-960.28156	324.15808	48.49078	-990.84375	377.2587	37.298176	-809.97266	37.15918	726.70978	-865.4939	50.567001	417.67596	-917.73926	30.54187	319.93716	-931.39911	50.711018	72.120758	-952.03436	101.77714	49.909359	-994.70984	61.165218	39.343723	-809.5838
55	0.27	230.68054	1319.4963	-1005.9525	235.95016	1262.8647	-845.1908	75.142891	1241.0305	-1001.113	348.95483	884.23346	-809.81903	96.649979	895.01666	-804.11359	262.9726	952.42975	-987.76697	189.452	952.24078	-984.79169	394.38297	551.19415	-879.44659	379.61728	416.98868	-908.90039	396.00452	204.3613	-937.62335	377.10947	62.621056	-960.20361	324.16858	48.456646	-990.85516	377.29016	37.281326	-810.04608	37.141014	726.74152	-865.51715	50.251415	418.02496	-917.84698	30.246042	320.21637	-931.54205	50.774147	72.104248	-952.11066	101.76685	49.884636	-994.71155	61.169403	39.366009	-809.62152
56	0.275	230.67102	1319.4919	-1005.9202	235.97205	1262.8185	-845.16589	75.146324	1241.0217	-1001.0656	348.94043	884.22205	-809.75616	96.635315	895.04919	-804.03156	262.94287	952.46124	-987.73877	189.412	952.29163	-984.76862	394.4256	551.17133	-879.52832	379.60614	417.00558	-908.87964	396.03064	204.4086	-937.64014	377.07123	62.618004	-960.19104	324.12488	48.507874	-990.88654	377.2897	37.306286	-810.05426	37.153294	726.74115	-865.47913	50.554356	417.70654	-917.72461	30.237175	320.21008	-931.48016	50.758507	72.124161	-952.08472	101.75595	49.925575	-994.72375	61.162231	39.376076	-809.6261
57	0.28	230.65759	1319.5078	-1005.8964	235.97597	1262.8207	-845.10529	75.145737	1241.0452	-1001.0287	348.94858	884.15283	-809.7301	96.6381	894.9762	-804.00873	262.92706	952.48804	-987.70422	189.3831	952.36853	-984.72357	394.50098	551.1792	-879.59674	379.58957	417.06989	-908.65717	395.61557	204.97061	-935.20612	377.11621	62.729404	-960.26044	324.11014	48.516502	-990.82855	377.25116	37.360165	-810.04999	37.16214	726.71246	-865.39886	50.552044	417.67105	-917.66827	30.529821	319.92441	-931.3468	50.725327	72.160851	-952.03748	101.73882	49.949684	-994.74963	61.170238	39.355015	-809.5697
58	0.285	230.65721	1319.4575	-1005.8657	235.97504	1262.7814	-845.03302	75.190742	1240.9985	-1000.9783	348.9545	884.16626	-809.69995	96.64415	894.93994	-803.95801	262.92786	952.50116	-987.67609	189.34526	952.37366	-984.68268	394.6264	551.15442	-879.73627	379.55176	417.11169	-908.47357	395.57684	205.01874	-935.0014	377.15649	62.791332	-960.32166	324.11581	48.527393	-990.82794	377.23651	37.375488	-809.99042	37.201763	726.65753	-865.32428	50.561317	417.63297	-917.6181	30.557426	319.90005	-931.32166	50.668362	72.180923	-951.98865	101.74609	49.988041	-994.73901	61.171951	39.340805	-809.55975
